<svg xmlns="http://www.w3.org/2000/svg" xmlns:xlink="http://www.w3.org/1999/xlink" style="text-rendering: geometricprecision; cursor: auto;" width="316.94117779055273" height="93.41176556385926"><rect id="backgroundrect" width="100%" height="100%" x="0" y="0" fill="none" stroke="none" class="" style=""/><desc>Created with Snap</desc><defs><linearGradient x1="0" y1="0.5" x2="1" y2="0.5" id="linearGradientSjo58jwuvrt"><stop offset="0%" stop-color="#894e00"/><stop offset="100%" stop-color="#894e00"/></linearGradient><linearGradient x1="0" y1="0.5" x2="1" y2="0.5" id="linearGradientSjo58jwuvrw"><stop offset="0%" stop-color="#4c2b00"/><stop offset="100%" stop-color="#4c2b00"/></linearGradient><linearGradient x1="0" y1="0.5" x2="1" y2="0.5" id="linearGradientSjo58jwuvrz"><stop offset="0%" stop-color="#419a1c"/><stop offset="100%" stop-color="#419a1c"/></linearGradient></defs><g class="currentLayer" style=""><title>Layer 1</title><g style="cursor: move; opacity: 1;" class="svg-clip svg-visible" id="svg_11"><rect x="-3.0468704725129063" y="-3.3096184176231187" width="33.00000000000005" height="25.00000000000005" fill="none" style="" class="svg-hitbox" transform="matrix(0.533,2.742,-2.742,0.533,109.4803,6.0954) " stroke-width="0" id="svg_12"/><g id="svg_1" transform="matrix(0.5330000000000001,2.7420000000000004,-2.7420000000000004,0.5330000000000001,392.1469564941407,240.09540000000004) " stroke-width="0"><svg width="33.21648025512695" height="25.606983184814453" viewBox="44.011,26.366308870378475,33.21648150596064,25.60698235804012" id="svg_17" x="-104.58789181955883" y="80.04023700535069"><desc>Created with Snap</desc><defs/><g id="svg_23"/><g id="svg_22"/><g id="svg_20"><path d="M71.227,32.95l-0.021-0.006c-1.065-0.321-2.145-0.599-3.217-0.895c-0.539-0.137-1.104-0.202-1.655-0.306l-1.661-0.281   l-1.707-0.067c-0.568-0.016-1.131-0.063-1.708,0.015l-1.714,0.152c-0.57,0.079-1.133,0.258-1.693,0.386   c-0.565,0.109-1.105,0.338-1.643,0.559l-0.805,0.326c-0.262,0.12-0.51,0.279-0.76,0.427c-0.498,0.299-0.998,0.584-1.432,0.974   c-0.453,0.358-0.898,0.717-1.275,1.151l-0.572,0.633l-0.496,0.689c-0.346,0.444-0.602,0.95-0.869,1.435   c-0.228,0.511-0.464,1.009-0.625,1.537c-0.171,0.52-0.299,1.059-0.363,1.595c0.238-0.488,0.48-0.959,0.786-1.396   c0.27-0.453,0.604-0.863,0.921-1.272c0.365-0.377,0.66-0.797,1.059-1.127l0.559-0.52l0.611-0.45   c0.381-0.327,0.819-0.573,1.252-0.816c0.413-0.274,0.885-0.445,1.34-0.63c0.232-0.086,0.445-0.205,0.68-0.279l0.714-0.194   c0.472-0.134,0.937-0.278,1.438-0.312c0.492-0.056,0.974-0.141,1.464-0.178l1.49-0.027c0.492-0.039,0.996,0.044,1.495,0.093   l1.495,0.152l1.496,0.291c0.498,0.106,1,0.171,1.493,0.309c0.604,0.177,1.205,0.359,1.808,0.537   c-0.007,0.034-0.012,0.069-0.02,0.102c-0.07,0.425-0.197,0.845-0.307,1.267c-0.156,0.406-0.264,0.836-0.47,1.223l-0.269,0.6   c-0.099,0.195-0.217,0.38-0.324,0.571c-0.111,0.188-0.212,0.386-0.333,0.569l-0.396,0.528c-0.135,0.174-0.256,0.36-0.401,0.527   l-0.464,0.478L65.665,41.8l-0.515,0.434c-0.355,0.276-0.67,0.614-1.076,0.832l-1.166,0.74l-1.264,0.609   c-0.211,0.102-0.42,0.215-0.637,0.31l-0.674,0.234c-0.449,0.16-0.904,0.308-1.357,0.482c-0.459,0.146-0.936,0.243-1.406,0.369   l-1.428,0.36c-0.969,0.159-1.946,0.328-2.938,0.533c0.992,0.116,1.996,0.196,3.01,0.267c0.506,0.015,1.011-0.025,1.52-0.045   c0.508-0.03,1.023-0.033,1.533-0.088c0.508-0.074,1.013-0.177,1.523-0.267l0.767-0.14c0.252-0.064,0.499-0.149,0.751-0.225   c0.5-0.154,1.006-0.306,1.504-0.485l1.44-0.694c0.497-0.207,0.922-0.552,1.382-0.837c0.225-0.152,0.459-0.294,0.676-0.459   l0.609-0.548l0.609-0.554c0.193-0.194,0.365-0.412,0.547-0.618l0.539-0.63c0.167-0.219,0.312-0.454,0.471-0.683   c0.323-0.451,0.602-0.931,0.838-1.434c0.271-0.486,0.438-1.018,0.648-1.531c0.163-0.531,0.34-1.06,0.436-1.613   c0.12-0.563,0.188-1.069,0.219-1.759C72.255,33.733,71.856,33.141,71.227,32.95z" fill="url('#linearGradientSjo58jwuvrt')" id="svg_21"/></g></svg></g></g><g style="cursor: move; opacity: 1;" class="svg-clip svg-visible" id="svg_18"><rect x="2.6628767601616596" y="-0.757013207737109" width="36" height="29" fill="none" style="" class="svg-hitbox" transform="matrix(2.7981,0,0,2.7981,0.6349,9.4281) " stroke-width="0" id="svg_19"/><g id="svg_2" transform="matrix(2.7981,0,0,2.7981,0.6349,9.4281) " stroke-width="0"><svg width="36.10449981689453" height="29.8439998626709" viewBox="10.00740928509584,13.780999999999999,36.1045004167387,29.844000000000015" id="svg_24" x="2.6628767601616596" y="-0.757013207737109"><desc>Created with Snap</desc><defs/><g id="svg_36"/><g id="svg_35"/><g id="svg_33"><path d="M30.525,36.803c-0.495-0.235-1.018-0.402-1.485-0.691l-1.425-0.788c-0.488-0.235-0.925-0.553-1.37-0.853   c-0.437-0.312-0.903-0.577-1.312-0.919l-1.228-1.01c-0.414-0.328-0.754-0.734-1.133-1.094c-0.387-0.355-0.71-0.766-1.034-1.172   c-0.336-0.396-0.651-0.807-0.93-1.242c-0.298-0.421-0.586-0.847-0.819-1.307l-0.374-0.671l-0.312-0.701   c-0.226-0.459-0.375-0.946-0.548-1.423c-0.137-0.484-0.31-0.965-0.402-1.452c-0.024-0.095-0.045-0.195-0.065-0.294l0.907-0.287   l2.046-0.527c0.683-0.146,1.367-0.288,2.052-0.413c0.685-0.069,1.374-0.214,2.056-0.227l1.025-0.051   c0.34-0.004,0.676,0.021,1.015,0.029c0.681-0.003,1.338,0.107,2.004,0.188l0.977,0.202c0.323,0.075,0.631,0.193,0.949,0.286   c0.323,0.082,0.614,0.236,0.92,0.36c0.311,0.117,0.6,0.273,0.886,0.438c0.296,0.147,0.586,0.308,0.855,0.502   c0.277,0.182,0.56,0.359,0.811,0.58c0.529,0.407,1.019,0.875,1.473,1.381c0.907,1.011,1.711,2.16,2.354,3.42   c0.326,0.625,0.624,1.274,0.894,1.938c0.276,0.662,0.504,1.347,0.722,2.038c0.427,1.387,0.778,2.814,0.993,4.279   c0.148-1.479,0.091-2.979-0.082-4.474c-0.104-0.745-0.231-1.49-0.406-2.229c-0.17-0.739-0.37-1.479-0.647-2.196   c-0.259-0.723-0.571-1.433-0.932-2.124c-0.355-0.694-0.765-1.371-1.247-2c-0.474-0.635-1.002-1.24-1.592-1.788   c-0.281-0.29-0.599-0.539-0.916-0.791c-0.309-0.264-0.643-0.493-0.989-0.708c-0.34-0.225-0.689-0.433-1.059-0.602   c-0.366-0.175-0.723-0.379-1.108-0.506c-0.38-0.138-0.757-0.298-1.144-0.413l-1.17-0.311c-0.392-0.096-0.789-0.141-1.185-0.212   c-0.396-0.075-0.792-0.121-1.189-0.131c-0.396-0.019-0.795-0.053-1.19-0.056l-1.181,0.035c-0.792,0.006-1.556,0.146-2.336,0.216   c-0.765,0.124-1.525,0.268-2.284,0.417c-0.742,0.197-1.487,0.392-2.221,0.607l-2.167,0.73l-0.038,0.012   c-0.59,0.199-0.989,0.781-0.931,1.428c0.067,0.744,0.17,1.299,0.325,1.908c0.135,0.601,0.327,1.176,0.537,1.744   c0.233,0.559,0.448,1.124,0.74,1.65l0.413,0.802l0.478,0.762c0.303,0.518,0.662,0.995,1.032,1.463   c0.185,0.234,0.358,0.477,0.551,0.702l0.621,0.641c0.41,0.429,0.82,0.854,1.288,1.216c0.46,0.367,0.884,0.779,1.373,1.103   l1.459,0.965c0.49,0.312,1.027,0.541,1.536,0.812c0.515,0.261,1.021,0.535,1.566,0.72c0.533,0.211,1.076,0.397,1.609,0.595   c0.527,0.218,1.097,0.308,1.64,0.465l1.646,0.404c1.116,0.18,2.236,0.311,3.341,0.447c-1.054-0.395-2.097-0.781-3.135-1.145   L30.525,36.803z" fill="url('#linearGradientSjo58jwuvrw')" id="svg_34"/></g></svg></g></g><g style="cursor: move; opacity: 1;" class="svg-text svg-visible" id="svg_25"><path fill="none" d="M132.52345398994385,73.31237669393045 C194.53678758369392,72.70407669393046 218.8687875836938,72.70407669393046 280.8821211774439,73.31237669393045 " style="" stroke-width="0" id="svg_26"/><text x="25.814215985031126" y="-17.35841411486037" fill="url('#linearGradientSjo58jwuvrz')" xml:space="preserve" style="font-size: 100px; font-family: Playball; text-anchor: middle;" dy="93.75" transform="matrix(0.6083,0,0,0.6083,191,20) " stroke-width="0" id="svg_27">Potato</text><rect x="25.8142486724023" y="-17.358421694713318" width="0" height="0" transform="matrix(0.6083,0,0,0.6083,191,20) " stroke-width="0" id="svg_28"/></g></g></svg>